<?xml version="1.0" encoding="utf-8"?>
<!-- Generator: Adobe Illustrator 21.1.0, SVG Export Plug-In . SVG Version: 6.00 Build 0)  -->
<svg version="1.1" id="Capa_1" xmlns="http://www.w3.org/2000/svg" xmlns:xlink="http://www.w3.org/1999/xlink" x="0px" y="0px"
	 viewBox="0 0 243.3 117" style="enable-background:new 0 0 243.3 117;" xml:space="preserve">
<style type="text/css">
	.st0{fill:#00679A;}
</style>
<g>
	<g>
		<path class="st0" d="M79.1,43.7c-2.7,0-4.6,1.9-5.2,4.9h10.4C83.8,45.7,82,43.7,79.1,43.7 M89.5,58.8c-2.3,2.7-5.4,4.5-9.8,4.5
			c-6.9,0-12.3-5-12.3-12.4c0-6.9,4.8-12.6,11.7-12.6c7.7,0,11.5,6.1,11.5,12.9c0,0.7-0.1,1.4-0.1,2H73.9c0.7,3,3,4.7,5.9,4.7
			c2.7,0,4.3-1.1,6.2-2.9l3.9,3.4L89.5,58.8z"/>
		<path class="st0" d="M98.7,50.8c0,4.1,2.8,6.7,6,6.7c3.2,0,6-2.7,6-6.7c0-4.2-2.9-6.8-6-6.8C101.5,44,98.7,46.4,98.7,50.8
			L98.7,50.8z M110.7,60c-1.7,1.9-4,3.2-7.2,3.2c-5.7,0-11.2-4.5-11.2-12.4c0-8,5.4-12.5,11.2-12.5c3.3,0,5.6,1.4,7.2,3.1V30h6.4
			v32.7h-6.4V60z"/>
		<path class="st0" d="M130.8,43.7c-2.6,0-4.6,1.9-5.2,4.9h10.4C135.4,45.7,133.6,43.7,130.8,43.7 M141.2,58.8
			c-2.3,2.7-5.4,4.5-9.8,4.5c-6.9,0-12.3-5-12.3-12.4c0-6.9,4.8-12.6,11.7-12.6c7.7,0,11.5,6.1,11.5,12.9c0,0.7-0.1,1.4-0.1,2h-16.6
			c0.7,3,3,4.7,5.9,4.7c2.7,0,4.3-1.1,6.2-2.9l3.9,3.4L141.2,58.8z"/>
		<path class="st0" d="M163.8,55.4c0,5.2-4.1,7.8-9,7.8c-3.9,0-7.4-1.5-10.5-3.9l3-4.5c2.2,1.7,4.7,3.1,7.6,3.1c2.1,0,3-0.9,3-1.9
			c0-1.6-3.6-2.4-4.7-2.7c-3.3-0.9-7.5-2.4-7.5-7.3c0-4.8,4-7.6,8.7-7.6c3.3,0,6.4,1.2,9.1,3l-2.6,4.7c-1.9-1.2-4.3-2.4-6.7-2.4
			c-1.9,0-2.6,0.8-2.6,1.7c0,1.5,3.7,2.4,4.7,2.7C159.6,49.1,163.8,50.7,163.8,55.4L163.8,55.4z"/>
		<path class="st0" d="M188.1,58.8c-2.3,2.6-5.1,4.5-9.8,4.5c-7.1,0-12.4-5.6-12.4-12.4c0-6.9,5.3-12.6,12.4-12.6
			c4.3,0,7.1,1.4,9.9,4.5l-4,4.3c-1.8-1.8-3.2-3.1-5.9-3.1c-3.4,0-6,3-6,6.7c0,3.9,2.6,6.9,6.3,6.9c2.6,0,4.2-1.3,5.9-3.1l4,3.9
			L188.1,58.8z"/>
		<path class="st0" d="M196,50.8c0,3.7,2.7,6.8,6.4,6.8c3.9,0,6.4-3,6.4-6.7c0-3.8-2.7-6.9-6.4-6.9C198.5,44,196,47,196,50.8
			L196,50.8z M215.1,50.8c0,6.8-5.5,12.5-12.8,12.5c-7.3,0-12.7-5.6-12.7-12.4c0-6.9,5.4-12.6,12.8-12.6
			C209.7,38.3,215.1,43.8,215.1,50.8L215.1,50.8z"/>
		<path class="st0" d="M47.8,45.1l-1.1,5.2h-3.6c1.2,4.1,4.6,6.8,9.3,6.8c2.6,0,5-0.8,6.7-2v-4.9h-3.8l1.2-5.2h8.9V58l-0.2,0.2
			c-3.1,2.6-7.5,4.7-13,4.7c-8.6,0-14.6-5.3-16-12.6h-4.8l1.1-5.2H47.8z"/>
		<path class="st0" d="M39.3,37.4c2.9-3.7,7.4-6.1,12.8-6.1c5.2,0,8.5,1.2,12.4,4.5l-4.1,4.8c-2.8-2.3-4.8-3.4-8.5-3.4
			c-1.1,0-1.6,0.1-2.6,0.4l-1,5H33l1.1-5.2H39.3z"/>
	</g>
	<g>
		<path class="st0" d="M39.6,88.3c-0.3,0-0.7,0-1-0.1c-0.3-0.1-0.6-0.2-0.8-0.4c-0.2-0.2-0.4-0.4-0.5-0.8c-0.1-0.3-0.2-0.7-0.2-1.1
			v-5.2h-1.2v-1.1h1.2V77h1.3v2.6h2.7v1.1h-2.7v5c0,0.5,0.1,0.9,0.4,1.1c0.3,0.2,0.6,0.3,1,0.3c0.2,0,0.4,0,0.6-0.1
			c0.2,0,0.4-0.1,0.6-0.2V88c-0.2,0.1-0.5,0.2-0.7,0.3C40.2,88.3,39.9,88.3,39.6,88.3z"/>
		<path class="st0" d="M46.6,88.4c-0.5,0-1-0.1-1.4-0.2c-0.4-0.2-0.7-0.4-1-0.7c-0.3-0.3-0.5-0.7-0.7-1.1c-0.1-0.4-0.2-0.9-0.2-1.4
			v-5.3h1.3v5c0,0.8,0.2,1.4,0.6,1.9c0.4,0.5,1,0.7,1.8,0.7c0.4,0,0.7-0.1,1-0.2c0.3-0.1,0.6-0.3,0.8-0.6c0.2-0.2,0.4-0.5,0.5-0.9
			c0.1-0.3,0.2-0.7,0.2-1.1v-4.9h1.3v8.6h-1.3v-1.5c-0.3,0.5-0.7,0.9-1.1,1.2C47.9,88.2,47.3,88.4,46.6,88.4z"/>
		<path class="st0" d="M58.7,79.6h1.3v2.2c0.2-0.4,0.3-0.7,0.6-1c0.2-0.3,0.5-0.6,0.8-0.8c0.3-0.2,0.6-0.4,1-0.5
			c0.4-0.1,0.7-0.2,1.1-0.1v1.4h-0.1c-0.5,0-0.9,0.1-1.3,0.3c-0.4,0.2-0.8,0.4-1.1,0.7c-0.3,0.3-0.6,0.7-0.7,1.2
			c-0.2,0.5-0.3,1.1-0.3,1.7v3.4h-1.3V79.6z"/>
		<path class="st0" d="M66.2,84.4c0,0.5,0.2,0.9,0.3,1.2c0.2,0.4,0.4,0.7,0.7,0.9c0.3,0.2,0.6,0.4,0.9,0.6c0.3,0.1,0.7,0.2,1.1,0.2
			c0.6,0,1.1-0.1,1.5-0.3c0.4-0.2,0.8-0.5,1.2-0.9l0.8,0.7c-0.4,0.5-0.9,0.9-1.5,1.2c-0.6,0.3-1.2,0.4-2.1,0.4
			c-0.6,0-1.1-0.1-1.7-0.3c-0.5-0.2-1-0.5-1.4-0.9c-0.4-0.4-0.7-0.9-0.9-1.4c-0.2-0.6-0.3-1.2-0.3-1.8c0-0.6,0.1-1.2,0.3-1.8
			c0.2-0.6,0.5-1,0.9-1.4c0.4-0.4,0.8-0.7,1.3-1c0.5-0.2,1.1-0.3,1.7-0.3c0.6,0,1.2,0.1,1.7,0.4c0.5,0.2,0.9,0.6,1.3,1
			c0.3,0.4,0.6,0.9,0.8,1.4c0.2,0.6,0.3,1.1,0.3,1.8c0,0.1,0,0.1,0,0.2c0,0.1,0,0.2,0,0.3H66.2z M71.7,83.4c0-0.4-0.1-0.8-0.3-1.1
			c-0.1-0.3-0.3-0.7-0.5-0.9c-0.2-0.3-0.5-0.5-0.8-0.6c-0.3-0.2-0.7-0.2-1.1-0.2c-0.4,0-0.7,0.1-1,0.2c-0.3,0.1-0.6,0.3-0.8,0.6
			c-0.2,0.3-0.4,0.6-0.6,0.9c-0.2,0.4-0.3,0.7-0.3,1.1H71.7z"/>
		<path class="st0" d="M78.1,88.3c-0.6,0-1.2-0.1-1.9-0.3c-0.6-0.2-1.2-0.5-1.7-0.9l0.6-0.9c0.5,0.4,0.9,0.6,1.5,0.8
			c0.5,0.2,1,0.3,1.5,0.3c0.5,0,0.9-0.1,1.3-0.4c0.3-0.2,0.5-0.6,0.5-1v0c0-0.2-0.1-0.4-0.2-0.5c-0.1-0.2-0.3-0.3-0.5-0.4
			c-0.2-0.1-0.4-0.2-0.7-0.3c-0.3-0.1-0.5-0.2-0.8-0.2c-0.3-0.1-0.7-0.2-1-0.3c-0.3-0.1-0.6-0.3-0.9-0.4c-0.3-0.2-0.5-0.4-0.7-0.7
			c-0.2-0.3-0.3-0.6-0.3-1v0c0-0.4,0.1-0.7,0.2-1c0.1-0.3,0.3-0.6,0.6-0.8c0.3-0.2,0.6-0.4,0.9-0.5c0.4-0.1,0.7-0.2,1.2-0.2
			c0.5,0,1.1,0.1,1.6,0.3c0.5,0.2,1,0.4,1.5,0.7l-0.6,1c-0.4-0.3-0.8-0.5-1.3-0.6c-0.4-0.1-0.9-0.2-1.3-0.2c-0.5,0-0.9,0.1-1.2,0.4
			c-0.3,0.2-0.4,0.5-0.4,0.9v0c0,0.2,0.1,0.4,0.2,0.5c0.1,0.1,0.3,0.3,0.5,0.4c0.2,0.1,0.4,0.2,0.7,0.3c0.3,0.1,0.5,0.2,0.8,0.3
			c0.3,0.1,0.7,0.2,1,0.3c0.3,0.1,0.6,0.3,0.9,0.5c0.3,0.2,0.5,0.4,0.6,0.7c0.2,0.3,0.2,0.6,0.2,1v0c0,0.4-0.1,0.8-0.2,1.1
			c-0.2,0.3-0.4,0.6-0.6,0.8c-0.3,0.2-0.6,0.4-1,0.5C78.9,88.3,78.5,88.3,78.1,88.3z"/>
		<path class="st0" d="M83.5,79.6h1.3v1.7c0.2-0.3,0.4-0.5,0.6-0.7c0.2-0.2,0.5-0.4,0.7-0.6c0.3-0.2,0.6-0.3,0.9-0.4
			c0.3-0.1,0.7-0.2,1.1-0.2c0.5,0,1,0.1,1.5,0.3c0.5,0.2,0.9,0.5,1.3,0.9c0.4,0.4,0.7,0.8,0.9,1.4c0.2,0.6,0.3,1.2,0.3,1.9v0
			c0,0.7-0.1,1.3-0.3,1.9c-0.2,0.6-0.5,1-0.9,1.4c-0.4,0.4-0.8,0.7-1.3,0.9c-0.5,0.2-1,0.3-1.5,0.3c-0.4,0-0.8,0-1.1-0.1
			c-0.3-0.1-0.6-0.2-0.9-0.4c-0.3-0.2-0.5-0.4-0.7-0.6c-0.2-0.2-0.4-0.5-0.6-0.7v4.3h-1.3V79.6z M87.9,87.2c0.4,0,0.8-0.1,1.2-0.2
			c0.4-0.1,0.7-0.4,1-0.6c0.3-0.3,0.5-0.6,0.6-1c0.2-0.4,0.2-0.9,0.2-1.4v0c0-0.5-0.1-1-0.2-1.4c-0.2-0.4-0.4-0.8-0.7-1
			c-0.3-0.3-0.6-0.5-1-0.7c-0.4-0.2-0.8-0.2-1.2-0.2c-0.4,0-0.8,0.1-1.2,0.2c-0.4,0.2-0.7,0.4-1,0.7c-0.3,0.3-0.5,0.6-0.7,1.1
			c-0.2,0.4-0.3,0.8-0.3,1.3v0c0,0.5,0.1,1,0.3,1.4c0.2,0.4,0.4,0.8,0.7,1c0.3,0.3,0.6,0.5,1,0.7C87.1,87.1,87.5,87.2,87.9,87.2z"/>
		<path class="st0" d="M97.1,88.4c-0.4,0-0.8-0.1-1.2-0.2c-0.4-0.1-0.7-0.3-1-0.5c-0.3-0.2-0.5-0.5-0.7-0.8
			c-0.2-0.3-0.3-0.7-0.3-1.2v0c0-0.5,0.1-0.9,0.3-1.2c0.2-0.4,0.4-0.6,0.8-0.9c0.3-0.2,0.7-0.4,1.2-0.5c0.4-0.1,0.9-0.2,1.5-0.2
			c0.6,0,1,0,1.4,0.1c0.4,0.1,0.8,0.2,1.2,0.3v-0.3c0-0.8-0.2-1.3-0.7-1.7c-0.4-0.4-1.1-0.6-1.9-0.6c-0.5,0-1,0.1-1.4,0.2
			c-0.4,0.1-0.8,0.3-1.2,0.4l-0.4-1.1c0.5-0.2,1-0.4,1.4-0.5c0.5-0.1,1-0.2,1.7-0.2c1.2,0,2.1,0.3,2.8,0.9c0.6,0.6,0.9,1.4,0.9,2.5
			v5.3h-1.3v-1.3c-0.3,0.4-0.7,0.7-1.2,1C98.5,88.2,97.9,88.4,97.1,88.4z M97.4,87.3c0.4,0,0.8-0.1,1.1-0.2c0.3-0.1,0.6-0.3,0.9-0.5
			c0.3-0.2,0.5-0.5,0.6-0.7c0.2-0.3,0.2-0.6,0.2-0.9v-0.8c-0.3-0.1-0.7-0.2-1.1-0.3c-0.4-0.1-0.9-0.1-1.4-0.1
			c-0.8,0-1.4,0.2-1.8,0.5c-0.4,0.3-0.7,0.7-0.7,1.3v0c0,0.3,0.1,0.5,0.2,0.7c0.1,0.2,0.3,0.4,0.5,0.5c0.2,0.1,0.4,0.3,0.7,0.3
			C96.8,87.3,97.1,87.3,97.4,87.3z"/>
		<path class="st0" d="M104.3,76h1.3v12.1h-1.3V76z"/>
		<path class="st0" d="M112.2,88.4c-0.5,0-1-0.1-1.5-0.3c-0.5-0.2-0.9-0.5-1.3-0.9c-0.4-0.4-0.7-0.8-0.9-1.4
			c-0.2-0.6-0.3-1.2-0.3-1.9v0c0-0.7,0.1-1.3,0.3-1.9c0.2-0.6,0.5-1,0.9-1.4c0.4-0.4,0.8-0.7,1.3-0.9c0.5-0.2,1-0.3,1.5-0.3
			c0.4,0,0.8,0,1.1,0.1c0.3,0.1,0.6,0.2,0.9,0.4c0.3,0.2,0.5,0.4,0.7,0.6c0.2,0.2,0.4,0.5,0.6,0.7V76h1.3v12.1h-1.3v-1.7
			c-0.2,0.3-0.4,0.5-0.6,0.7c-0.2,0.2-0.5,0.4-0.7,0.6c-0.3,0.2-0.6,0.3-0.9,0.4C113,88.3,112.6,88.4,112.2,88.4z M112.4,87.2
			c0.4,0,0.8-0.1,1.2-0.2c0.4-0.2,0.7-0.4,1-0.7c0.3-0.3,0.5-0.6,0.7-1c0.2-0.4,0.3-0.9,0.3-1.4v0c0-0.5-0.1-1-0.3-1.4
			c-0.2-0.4-0.4-0.8-0.7-1c-0.3-0.3-0.6-0.5-1-0.7c-0.4-0.2-0.8-0.2-1.2-0.2c-0.4,0-0.8,0.1-1.2,0.2c-0.4,0.1-0.7,0.4-1,0.6
			c-0.3,0.3-0.5,0.6-0.6,1c-0.2,0.4-0.2,0.9-0.2,1.4v0c0,0.5,0.1,1,0.2,1.4c0.2,0.4,0.4,0.8,0.7,1c0.3,0.3,0.6,0.5,1,0.7
			C111.6,87.1,112,87.2,112.4,87.2z"/>
		<path class="st0" d="M123.6,88.4c-0.6,0-1.2-0.1-1.8-0.4c-0.5-0.2-1-0.6-1.4-1c-0.4-0.4-0.7-0.9-0.9-1.4c-0.2-0.5-0.3-1.1-0.3-1.7
			v0c0-0.6,0.1-1.2,0.3-1.7c0.2-0.5,0.5-1,0.9-1.4c0.4-0.4,0.9-0.7,1.4-1c0.5-0.2,1.2-0.4,1.8-0.4c0.6,0,1.2,0.1,1.8,0.4
			c0.6,0.2,1,0.6,1.4,1c0.4,0.4,0.7,0.9,0.9,1.4c0.2,0.5,0.3,1.1,0.3,1.7v0c0,0.6-0.1,1.2-0.3,1.7c-0.2,0.5-0.5,1-0.9,1.4
			c-0.4,0.4-0.9,0.7-1.4,1C124.8,88.3,124.2,88.4,123.6,88.4z M123.6,87.2c0.5,0,0.9-0.1,1.3-0.3c0.4-0.2,0.7-0.4,1-0.7
			c0.3-0.3,0.5-0.6,0.6-1c0.2-0.4,0.2-0.8,0.2-1.3v0c0-0.5-0.1-0.9-0.2-1.3c-0.2-0.4-0.4-0.8-0.7-1.1c-0.3-0.3-0.6-0.5-1-0.7
			c-0.4-0.2-0.8-0.3-1.3-0.3c-0.5,0-0.9,0.1-1.3,0.3c-0.4,0.2-0.7,0.4-1,0.7c-0.3,0.3-0.5,0.7-0.6,1.1c-0.2,0.4-0.2,0.8-0.2,1.3v0
			c0,0.5,0.1,0.9,0.2,1.3c0.2,0.4,0.4,0.8,0.7,1.1c0.3,0.3,0.6,0.5,1,0.7C122.7,87.1,123.1,87.2,123.6,87.2z"/>
		<path class="st0" d="M135.8,80.7h-1.2v-1.1h1.2v-0.7c0-1,0.3-1.7,0.7-2.2c0.4-0.4,1.1-0.7,1.8-0.7c0.3,0,0.6,0,0.8,0
			c0.2,0,0.4,0.1,0.6,0.2v1.1c-0.2-0.1-0.4-0.1-0.6-0.2c-0.2,0-0.4-0.1-0.6-0.1c-1,0-1.5,0.6-1.5,1.8v0.7h2.7v1.1h-2.7v7.5h-1.3
			V80.7z M141.5,76.3h1.5v1.4h-1.5V76.3z M141.6,79.6h1.3v8.6h-1.3V79.6z"/>
		<path class="st0" d="M145.9,79.6h1.3v1.5c0.3-0.5,0.7-0.9,1.1-1.2c0.5-0.3,1.1-0.5,1.8-0.5c0.5,0,1,0.1,1.4,0.2
			c0.4,0.2,0.7,0.4,1,0.7c0.3,0.3,0.5,0.7,0.6,1.1c0.2,0.4,0.2,0.9,0.2,1.4v5.3h-1.3v-5c0-0.8-0.2-1.4-0.6-1.9
			c-0.4-0.5-1-0.7-1.8-0.7c-0.4,0-0.7,0.1-1,0.2c-0.3,0.1-0.6,0.3-0.8,0.5c-0.2,0.2-0.4,0.5-0.5,0.9c-0.1,0.3-0.2,0.7-0.2,1.1v4.9
			h-1.3V79.6z"/>
		<path class="st0" d="M158.7,88.4c-0.4,0-0.8-0.1-1.2-0.2c-0.4-0.1-0.7-0.3-1-0.5c-0.3-0.2-0.5-0.5-0.7-0.8
			c-0.2-0.3-0.3-0.7-0.3-1.2v0c0-0.5,0.1-0.9,0.3-1.2c0.2-0.4,0.4-0.6,0.8-0.9c0.3-0.2,0.7-0.4,1.2-0.5c0.4-0.1,0.9-0.2,1.5-0.2
			c0.6,0,1,0,1.4,0.1c0.4,0.1,0.8,0.2,1.2,0.3v-0.3c0-0.8-0.2-1.3-0.7-1.7c-0.4-0.4-1.1-0.6-1.9-0.6c-0.5,0-1,0.1-1.4,0.2
			c-0.4,0.1-0.8,0.3-1.2,0.4l-0.4-1.1c0.5-0.2,1-0.4,1.4-0.5c0.5-0.1,1-0.2,1.7-0.2c1.2,0,2.1,0.3,2.8,0.9c0.6,0.6,0.9,1.4,0.9,2.5
			v5.3h-1.3v-1.3c-0.3,0.4-0.7,0.7-1.2,1C160.1,88.2,159.4,88.4,158.7,88.4z M158.9,87.3c0.4,0,0.8-0.1,1.1-0.2
			c0.3-0.1,0.6-0.3,0.9-0.5c0.3-0.2,0.5-0.5,0.6-0.7c0.2-0.3,0.2-0.6,0.2-0.9v-0.8c-0.3-0.1-0.7-0.2-1.1-0.3
			c-0.4-0.1-0.9-0.1-1.4-0.1c-0.8,0-1.4,0.2-1.8,0.5c-0.4,0.3-0.7,0.7-0.7,1.3v0c0,0.3,0.1,0.5,0.2,0.7c0.1,0.2,0.3,0.4,0.5,0.5
			c0.2,0.1,0.4,0.3,0.7,0.3C158.4,87.3,158.6,87.3,158.9,87.3z"/>
		<path class="st0" d="M165.7,79.6h1.3v1.5c0.3-0.5,0.7-0.9,1.1-1.2c0.5-0.3,1.1-0.5,1.8-0.5c0.5,0,1,0.1,1.4,0.2
			c0.4,0.2,0.7,0.4,1,0.7c0.3,0.3,0.5,0.7,0.6,1.1c0.2,0.4,0.2,0.9,0.2,1.4v5.3H172v-5c0-0.8-0.2-1.4-0.6-1.9
			c-0.4-0.5-1-0.7-1.8-0.7c-0.4,0-0.7,0.1-1,0.2c-0.3,0.1-0.6,0.3-0.8,0.5c-0.2,0.2-0.4,0.5-0.5,0.9c-0.1,0.3-0.2,0.7-0.2,1.1v4.9
			h-1.3V79.6z"/>
		<path class="st0" d="M179.9,88.4c-0.6,0-1.2-0.1-1.8-0.4c-0.5-0.2-1-0.6-1.4-1c-0.4-0.4-0.7-0.9-0.9-1.4c-0.2-0.5-0.3-1.1-0.3-1.7
			v0c0-0.6,0.1-1.2,0.3-1.7c0.2-0.5,0.5-1,0.9-1.4c0.4-0.4,0.9-0.7,1.4-1c0.5-0.2,1.1-0.4,1.8-0.4c0.4,0,0.8,0,1.1,0.1
			c0.3,0.1,0.6,0.2,0.9,0.3c0.3,0.1,0.5,0.3,0.8,0.5c0.2,0.2,0.5,0.4,0.7,0.6l-0.9,0.9c-0.3-0.4-0.7-0.7-1.1-0.9
			c-0.4-0.3-0.9-0.4-1.5-0.4c-0.4,0-0.8,0.1-1.2,0.3c-0.4,0.2-0.7,0.4-1,0.7c-0.3,0.3-0.5,0.7-0.6,1.1c-0.2,0.4-0.2,0.8-0.2,1.3v0
			c0,0.5,0.1,0.9,0.2,1.3c0.2,0.4,0.4,0.8,0.7,1.1c0.3,0.3,0.6,0.5,1,0.7c0.4,0.2,0.8,0.3,1.3,0.3c0.6,0,1-0.1,1.5-0.4
			c0.4-0.2,0.8-0.6,1.2-0.9l0.8,0.8c-0.4,0.5-0.9,0.9-1.5,1.2C181.4,88.2,180.7,88.4,179.9,88.4z"/>
		<path class="st0" d="M185.5,76.3h1.5v1.4h-1.5V76.3z M185.6,79.6h1.3v8.6h-1.3V79.6z"/>
		<path class="st0" d="M190.6,84.4c0,0.5,0.2,0.9,0.3,1.2c0.2,0.4,0.4,0.7,0.7,0.9c0.3,0.2,0.6,0.4,0.9,0.6c0.3,0.1,0.7,0.2,1.1,0.2
			c0.6,0,1.1-0.1,1.5-0.3c0.4-0.2,0.8-0.5,1.2-0.9l0.8,0.7c-0.4,0.5-0.9,0.9-1.5,1.2c-0.6,0.3-1.2,0.4-2.1,0.4
			c-0.6,0-1.1-0.1-1.7-0.3c-0.5-0.2-1-0.5-1.4-0.9c-0.4-0.4-0.7-0.9-0.9-1.4c-0.2-0.6-0.3-1.2-0.3-1.8c0-0.6,0.1-1.2,0.3-1.8
			c0.2-0.6,0.5-1,0.9-1.4c0.4-0.4,0.8-0.7,1.3-1c0.5-0.2,1.1-0.3,1.7-0.3c0.6,0,1.2,0.1,1.7,0.4c0.5,0.2,0.9,0.6,1.3,1
			c0.3,0.4,0.6,0.9,0.8,1.4c0.2,0.6,0.3,1.1,0.3,1.8c0,0.1,0,0.1,0,0.2c0,0.1,0,0.2,0,0.3H190.6z M196.2,83.4c0-0.4-0.1-0.8-0.2-1.1
			c-0.1-0.3-0.3-0.7-0.5-0.9c-0.2-0.3-0.5-0.5-0.8-0.6c-0.3-0.2-0.7-0.2-1.1-0.2c-0.4,0-0.7,0.1-1,0.2c-0.3,0.1-0.6,0.3-0.8,0.6
			c-0.2,0.3-0.4,0.6-0.6,0.9c-0.2,0.4-0.3,0.7-0.3,1.1H196.2z"/>
		<path class="st0" d="M199.7,79.6h1.3v2.2c0.2-0.4,0.3-0.7,0.6-1c0.2-0.3,0.5-0.6,0.8-0.8c0.3-0.2,0.6-0.4,1-0.5
			c0.4-0.1,0.7-0.2,1.1-0.1v1.4h-0.1c-0.5,0-0.9,0.1-1.3,0.3c-0.4,0.2-0.8,0.4-1.1,0.7c-0.3,0.3-0.6,0.7-0.7,1.2
			c-0.2,0.5-0.3,1.1-0.3,1.7v3.4h-1.3V79.6z"/>
		<path class="st0" d="M210.4,88.4c-0.6,0-1.2-0.1-1.8-0.4c-0.5-0.2-1-0.6-1.4-1c-0.4-0.4-0.7-0.9-0.9-1.4c-0.2-0.5-0.3-1.1-0.3-1.7
			v0c0-0.6,0.1-1.2,0.3-1.7c0.2-0.5,0.5-1,0.9-1.4c0.4-0.4,0.9-0.7,1.4-1c0.5-0.2,1.2-0.4,1.8-0.4c0.6,0,1.2,0.1,1.8,0.4
			c0.5,0.2,1,0.6,1.4,1c0.4,0.4,0.7,0.9,0.9,1.4c0.2,0.5,0.3,1.1,0.3,1.7v0c0,0.6-0.1,1.2-0.3,1.7c-0.2,0.5-0.5,1-0.9,1.4
			c-0.4,0.4-0.9,0.7-1.4,1C211.6,88.3,211,88.4,210.4,88.4z M210.4,87.2c0.5,0,0.9-0.1,1.3-0.3c0.4-0.2,0.7-0.4,1-0.7
			c0.3-0.3,0.5-0.6,0.6-1c0.2-0.4,0.2-0.8,0.2-1.3v0c0-0.5-0.1-0.9-0.2-1.3c-0.2-0.4-0.4-0.8-0.7-1.1c-0.3-0.3-0.6-0.5-1-0.7
			c-0.4-0.2-0.8-0.3-1.3-0.3c-0.5,0-0.9,0.1-1.3,0.3c-0.4,0.2-0.7,0.4-1,0.7c-0.3,0.3-0.5,0.7-0.6,1.1c-0.2,0.4-0.2,0.8-0.2,1.3v0
			c0,0.5,0.1,0.9,0.2,1.3c0.2,0.4,0.4,0.8,0.7,1.1c0.3,0.3,0.6,0.5,1,0.7C209.5,87.1,210,87.2,210.4,87.2z"/>
	</g>
</g>
</svg>
